Source: Universal.Soldier.1992.720p.BluRay.x264-HANGOVER 

Subs: Arabic, Bulgarian, Danish, Dutch, English, Farsi-Persian, Portuguese, Romanian, Slovenian, Spanish and Swedish.

Sample and Screens included.

General
Complete name                    : Universal Soldier-720p MP4 AAC x264 BRRip 1992-CC.mp4
Format                           : MPEG-4
Format profile                   : Base Media
Codec ID                         : isom
File size                        : 1.90 GiB
Duration                         : 1h 43mn
Overall bit rate                 : 2 619 Kbps
Encoded date                     : UTC 2012-04-07 08:06:37

Video
ID                               : 1
Format                           : AVC
Format/Info                      : Advanced Video Codec
Format profile                   : High@L3.1
Format settings, CABAC           : Yes
Format settings, ReFrames        : 5 frames
Codec ID                         : avc1
Codec ID/Info                    : Advanced Video Coding
Duration                         : 1h 43mn
Bit rate mode                    : Variable
Bit rate                         : 2 230 Kbps
Nominal bit rate                 : 2 213 Kbps
Maximum bit rate                 : 22.2 Mbps
Width                            : 1 280 pixels
Height                           : 544 pixels
Display aspect ratio             : 2.35:1
Frame rate mode                  : Variable
Frame rate                       : 23.967 fps
Minimum frame rate               : 7.992 fps
Maximum frame rate               : 23.981 fps
Resolution                       : 24 bits
Colorimetry                      : 4:2:0
Scan type                        : Progressive
Bits/(Pixel*Frame)               : 0.134
Stream size                      : 1.62 GiB (85%)
Writing library                  : x264 core 112

Audio
ID                               : 2
Format                           : AAC
Format/Info                      : Advanced Audio Codec
Format version                   : Version 4
Format profile                   : LC
Format settings, SBR             : No
Codec ID                         : 40
Duration                         : 1h 43mn
Bit rate mode                    : Variable
Bit rate                         : 384 Kbps
Maximum bit rate                 : 631 Kbps
Channel(s)                       : 6 channels
Channel positions                : Front: L C R, Rear: L R, LFE
Sampling rate                    : 48.0 KHz
Resolution                       : 16 bits
Stream size                      : 285 MiB (15%)
Language                         : English